<svg xmlns="http://www.w3.org/2000/svg" viewBox="0 0 417.8 417.8">
   <path d="M.25.25h417.3v417.3h-417.3zM51.65.25v417.3M104.25.25v417.3M156.95.25v417.3m52.7-417.3v417.3m52.6-417.3v417.3m52.7-417.3v417.3m52.7-417.3v417.3M.25 367.55h417.4m-417.4-52.7h417.4m-417.4-52.6h417.4m-417.4-52.7h417.4m-417.4-52.7h417.4m-417.4-52.6h417.4m-417.4-52.7h417.4" style="fill:none;stroke:#fff;stroke-width:.5;stroke-miterlimit:10"/>
   <path d="M51.65 47.45v8.2m-4.1-4.1h8.2M104.25 47.45v8.2m-4.1-4.1h8.2M156.95 47.45v8.2m-4.1-4.1h8.2M209.65 47.45v8.2m-4.1-4.1h8.2M262.25 47.45v8.2m-4.1-4.1h8.2M314.95 47.45v8.2m-4.1-4.1h8.2M367.65 47.45v8.2m-4.1-4.1h8.2M51.65 100.15v8.2m-4.1-4.1h8.2M104.25 100.15v8.2m-4.1-4.1h8.2M156.95 100.15v8.2m-4.1-4.1h8.2M209.65 100.15v8.2m-4.1-4.1h8.2M262.25 100.15v8.2m-4.1-4.1h8.2M314.95 100.15v8.2m-4.1-4.1h8.2M367.65 100.15v8.2m-4.1-4.1h8.2M51.65 152.75v8.2m-4.1-4.1h8.2M104.25 152.75v8.2m-4.1-4.1h8.2M156.95 152.75v8.2m-4.1-4.1h8.2M209.65 152.75v8.2m-4.1-4.1h8.2M262.25 152.75v8.2m-4.1-4.1h8.2M314.95 152.75v8.2m-4.1-4.1h8.2M367.65 152.75v8.2m-4.1-4.1h8.2M51.65 205.45v8.2m-4.1-4.1h8.2M104.25 205.45v8.2m-4.1-4.1h8.2M156.95 205.45v8.2m-4.1-4.1h8.2M209.65 205.45v8.2m-4.1-4.1h8.2M262.25 205.45v8.2m-4.1-4.1h8.2M314.95 205.45v8.2m-4.1-4.1h8.2M367.65 205.45v8.2m-4.1-4.1h8.2M51.65 258.15v8.2m-4.1-4.1h8.2M104.25 258.15v8.2m-4.1-4.1h8.2M156.95 258.15v8.2m-4.1-4.1h8.2M209.65 258.15v8.2m-4.1-4.1h8.2M262.25 258.15v8.2m-4.1-4.1h8.2M314.95 258.15v8.2m-4.1-4.1h8.2M367.65 258.15v8.2m-4.1-4.1h8.2M51.65 310.75v8.2m-4.1-4.1h8.2M104.25 310.75v8.2m-4.1-4.1h8.2M156.95 310.75v8.2m-4.1-4.1h8.2M209.65 310.75v8.2m-4.1-4.1h8.2M262.25 310.75v8.2m-4.1-4.1h8.2M314.95 310.75v8.2m-4.1-4.1h8.2M367.65 310.75v8.2m-4.1-4.1h8.2M51.65 363.45v8.2m-4.1-4.1h8.2M104.25 363.45v8.2m-4.1-4.1h8.2M156.95 363.45v8.2m-4.1-4.1h8.2M209.65 363.45v8.2m-4.1-4.1h8.2M262.25 363.45v8.2m-4.1-4.1h8.2M314.95 363.45v8.2m-4.1-4.1h8.2M367.65 363.45v8.2m-4.1-4.1h8.2" style="stroke-width:1.5;fill:none;stroke:#fff;stroke-miterlimit:10"/>
</svg>