<svg xmlns="http://www.w3.org/2000/svg" viewBox="0 0 84.499982 91.300008">
   <g transform="translate(-398.2 -705.8)">
      <path d="M451.2 732.3a26.5 26.5 0 0 1-26.5 26.5 26.5 26.5 0 0 1-26.5-26.5 26.5 26.5 0 0 1 26.5-26.5 26.5 26.5 0 0 1 26.5 26.5z" fill="#ed4555"/>
      <path d="M446.9 775.3v-4.6c0-.1 0-.2-.1-.3l-1.2-1.2-1-1c-.1-.1-.3-.2-.4-.2h-7.2c-.2 0-.3.1-.4.2l-1 1-1.3 1.3c-.1.1-.1.2-.1.4v7.3c0 .1.1.3.2.4l2.3 2.3c.1.1.2.2.4.2h7.3c.2 0 .3 0 .4-.2l2.2-2.2c.1-.1.2-.2.2-.4-.3-1-.3-2-.3-3zm-9.9 2.1l-.1-.1v-5.5c0-.1 0-.1.1-.2l.3-.3c.2-.2.3-.3.5-.4 0 0 .1-.1.2-.1h5.2s.1 0 .2.1c.3.3.6.5.8.8 0 0 .1.1.1.2v5.5s0 .1-.1.2c-.3.3-.5.6-.8.8l-.1.1h-5.2s-.1 0-.1-.1l-1-1z" fill="#fff"/>
      <path d="M418.4 781h1.6c.2 0 .2 0 .3-.2.6-1 1.2-2.1 1.9-3.1l1.7-2.8c.1-.2.2-.2.4-.2h1.8c.2 0 .3.1.4.2.6 1 1.2 2 1.8 3.1.6 1 1.2 1.9 1.7 2.9.1.1.1.2.3.2h3.3c0-.1-.1-.1-.1-.1l-.8-1.3c-1.2-2-2.4-4-3.6-6.1-.1-.2-.1-.3 0-.5l4.2-7 .2-.4s0-.1.1-.1h-3.2c-.2 0-.3.1-.4.2l-1.9 3.2-1.6 2.7c-.1.2-.2.2-.4.2h-1.7c-.2 0-.3-.1-.4-.3-.6-1-1.2-2.1-1.9-3.1l-1.7-2.8c-.1-.1-.2-.2-.3-.2h-3.2l.1.2.4.7 4 6.6c.1.2.1.3 0 .5-1.3 2.2-2.6 4.4-3.9 6.5l-.5.8-.1.2h1.5z" fill="#ed4555"/>
      <path d="M426.4 764h-2.4c-.3 0-.5.2-.5.5v1.8c0 .3.2.5.5.5h2.4c.3 0 .5-.2.5-.5v-1.8c0-.3-.2-.5-.5-.5z" fill="#ed4555"/>
      <path d="M406.7 775.9h8.5s.2 0 .3-.1c.1-.1.1-.2.1-.3v-2s0-.2-.1-.3c-.1-.1-.1-.1-.2-.1h-8.5v-2.5h8.6c.1 0 .2 0 .2-.1.1-.1.1-.2.1-.3v-1.9c0-.3-.1-.4-.4-.4h-11.2c-.3 0-.4.1-.4.4v12.499999999999998h11.4c.1 0 .2 0 .2-.1.1-.1.1-.2.1-.3v-1.9c0-.3-.1-.4-.4-.4h-8.3v-2.2z" fill="#fff"/>
      <path d="M440 795.2v-.5c0-.3-.1-.4-.4-.4h-8.5v-10.1c0-.1 0-.1-.1-.2s-.2-.1-.3-.1h-2c-.4 0-.4.1-.4.4v12.3c0 .1 0 .2.1.3.1.1.2.1.2.1h11c.1 0 .2 0 .3-.1.1-.1.1-.2.1-.3v-1.4z" fill="#fff"/>
      <path d="M426.5 784.4c0-.1 0-.2-.1-.3-.1-.1-.2-.1-.3-.1h-11.1c-.1 0-.2 0-.3.1-.1.1-.1.2-.1.3v2c0 .3.1.4.4.4h4.1v9.9c0 .1 0 .2.1.3.1.1.2.1.3.1h2.1c.3 0 .4-.1.4-.4v-9.9h4.1c.3 0 .3-.1.3-.4v-.6c.1-.5.1-1 .1-1.4z" fill="#fff"/>
      <path d="M482.7 784.4c0-.1 0-.2-.1-.3-.1-.1-.2-.1-.3-.1h-11.1c-.1 0-.2 0-.3.1-.1.1-.1.2-.1.3v2c0 .3.1.4.4.4h4.1v9.9c0 .1 0 .2.1.3.1.1.2.1.3.1h2.1c.3 0 .4-.1.4-.4v-9.9h4.1c.3 0 .3-.1.3-.4v-.6c.1-.5.1-1 .1-1.4z" fill="#fff"/>
      <path d="M415.7 796.8v-.1l-.7-2.1c-.4-1.1-.8-2.2-1.1-3.3-.8-2.4-1.6-4.7-2.5-7-.1-.2-.2-.3-.4-.3h-4.7c-.1 0-.3 0-.3.2-.3 1-.7 1.9-1 2.8l-.1.4-.6 1.8-.8 2.3-1.5 4.2-.2.6-.1.4h2.7c.1 0 .2-.1.3-.2.2-.7.5-1.5.8-2.2 0-.1.1-.2.2-.2h6.2c.1 0 .2 0 .2.2l.4 1.1c.1.4.2.7.4 1.1.1.2.2.3.4.3h2.6zm-4.7-5.1h-4.7v-.1l.2-.5c.4-1 .7-2 1.1-3.1l.3-.8c0-.1 0-.1.1-.2.1-.2.1-.3.2-.4h1c.1 0 .1 0 .1.1l1.1 3.2.6 1.8z" fill="#fff"/>
      <path d="M455 796.8v-.1l-.7-2.1c-.4-1.1-.8-2.2-1.1-3.3-.8-2.4-1.6-4.7-2.5-7-.1-.2-.2-.3-.4-.3h-4.7c-.1 0-.3 0-.3.2-.3 1-.7 1.9-1 2.8l-.1.4-.6 1.8-.8 2.3-1.5 4.2-.2.6-.1.4h2.7c.1 0 .2-.1.3-.2.2-.7.5-1.5.8-2.2 0-.1.1-.2.2-.2h6.2c.1 0 .2 0 .2.2l.4 1.1c.1.4.2.7.4 1.1.1.2.2.3.4.3h2.6zm-4.8-5.1h-4.7v-.1l.2-.5c.4-1 .7-2 1.1-3.1l.3-.8c0-.1 0-.1.1-.2.1-.2.1-.3.2-.4h1c.1 0 .1 0 .1.1l1.1 3.2.6 1.8z" fill="#fff"/>
      <path d="M469.3 784.5c0-.4-.1-.4-.4-.4h-2.3v8.9l-7.1-8.7c-.1-.1-.3-.2-.4-.2h-2.1c-.4 0-.4.1-.4.4v12.100000000000001c0 .4.1.4.4.4h1.9c.4 0 .4-.1.4-.4v-8.2l6.8 8.3c.2.2.4.3.6.3h2.2c.4 0 .4-.1.4-.4v-7.4z" fill="#fff"/>
   </g>
</svg>
