<svg xmlns="http://www.w3.org/2000/svg" width="300" height="214.312">
  <g style="opacity:0.3">
      <path d="M52.175 155.599c-.513-1.875-1.532-5.508-6.886-5.508-3.112 0-7.815 2.226-7.815 10.987 0 5.563 2.351 10.718 7.815 10.718 3.596 0 6.118-2.171 6.886-5.976h6.463c-1.281 6.759-5.688 11.458-13.467 11.458-8.247 0-14.152-5.608-14.152-16.289 0-10.86 6.246-16.368 14.233-16.368 9.285 0 13.033 6.408 13.386 10.978h-6.463zm14.374 6.592l7.598-8.725h7.4l-8.077 8.887 8.294 14.114h-7.23l-5.48-9.879-2.505 2.615v7.264h-6.031v-23.001h6.031v8.725zm37.278 2.73c0 8.291-5.561 12.149-11.718 12.149-6.147 0-11.754-3.801-11.754-12.096 0-8.301 5.607-12.107 11.754-12.107 6.157 0 11.718 3.761 11.718 12.053m-17.271 0c0 2.947.894 7.048 5.553 7.048 4.661 0 5.516-4.056 5.516-6.994 0-2.956-.855-7.014-5.516-7.014-4.659 0-5.553 4.012-5.553 6.96" fill="#fff"/>
      <path d="M126.489 153.464v23.003h-6.031v-18.162h-6.453v7.093c0 8.798-2.649 11.573-6.886 11.573-1.054 0-2.777-.17-3.669-.504v-4.498c.125.089.892.172 1.784.172 1.812 0 2.749-.894 2.749-7.897v-10.779h18.505zm9.11 8.727l7.598-8.725h7.4l-8.085 8.887 8.302 14.114h-7.23l-5.471-9.879-2.514 2.615v7.264h-6.031v-23.001h6.031v8.725zm37.278 2.73c0 8.291-5.552 12.149-11.709 12.149s-11.754-3.801-11.754-12.096c0-8.301 5.597-12.107 11.754-12.107 6.157 0 11.709 3.761 11.709 12.053m-17.26 0c0 2.947.892 7.048 5.552 7.048 4.64 0 5.526-4.056 5.526-6.994 0-2.956-.886-7.014-5.526-7.014-4.659 0-5.552 4.012-5.552 6.96" fill="#fff"/>
      <path d="M174.831 153.466h10.384c5.137 0 8.895 2.101 8.895 5.942 0 2.649-1.883 4.352-4.282 4.956 2.352.562 4.965 2.064 4.965 5.825 0 4.261-3.225 6.282-8.435 6.282h-11.527v-23.004zm6.019 9.312h3.931c2.001 0 3.418-.801 3.418-2.605 0-1.876-1.363-2.56-3.372-2.56h-3.976v5.165zm0 9.546h4.434c2.228 0 3.607-.685 3.607-2.958 0-2.009-1.452-2.938-3.677-2.938h-4.365v5.896zm38.081-7.403c0 8.291-5.543 12.149-11.709 12.149-6.149 0-11.764-3.801-11.764-12.096 0-8.301 5.615-12.107 11.764-12.107 6.165 0 11.709 3.761 11.709 12.053m-17.27 0c0 2.947.908 7.048 5.561 7.048 4.659 0 5.508-4.056 5.508-6.994 0-2.956-.848-7.014-5.508-7.014-4.653 0-5.561 4.012-5.561 6.96m-126.804-25.499c5.139 0 17.793-.9 27.249-7.805v5.237h19.08l.019-23.03 7.967-8.247 17.343 31.277h22.893l-26.273-44.691 25.59-28.167h-23.435l-24.084 27.636v-53.09h-19.099v8.399c-5.815-6.244-15.243-10.967-29.943-10.967-31.82 0-37.794 19.358-37.794 30.194 0 14.89 8.004 23.165 21.947 26.545l19.768 4.867c10.426 2.577 17.882 4.47 17.882 12.188 0 10.294-10.842 12.727-20.595 12.727-17.875 0-20.849-10.422-20.849-15.971h-19.64c0 12.185 6.228 32.898 41.976 32.898m13.007-58.624l-23.958-5.833c-4.073-.945-10.439-2.577-10.439-10.284 0-8.806 9.348-11.788 17.2-11.788 17.874 0 19.506 10.436 20.037 14.898h11.403v18.325c-4.183-2.443-9.121-4.03-14.242-5.318" fill="#fff"/>
      <path style="paint-order:stroke markers fill" stroke="#fff" stroke-width="2" stroke-linecap="round" stroke-linejoin="round" stroke-opacity=".996" fill="none" d="M2.724 2.724h294.225v209.772h-294.225z"/>
  </g>
</svg>
