<svg xmlns="http://www.w3.org/2000/svg" viewBox="0 0 99.18 18.05">
    <defs>
        <style>
            .accent{fill:#0099de}.regular{fill:#fff}
        </style>
    </defs>
    <path class="accent" d="M21.68 9.68a.35.35 0 0 1 0-.53 1.78 1.78 0 0 0 .32-.32v-.06l4-8.66a.45.45 0 0 0 0-.11h-2.1a.88.88 0 0 0-.81.52l-3.19 7c-.13.24-.44.7-.7.7h-1c-.3 0-.61-.45-.72-.71l-3.43-7a.94.94 0 0 0-.84-.51h-2.1a.27.27 0 0 0 0 .12l4.17 8.53a1.68 1.68 0 0 0 .4.51.34.34 0 0 1 0 .52 1.94 1.94 0 0 0-.43.55l-3.77 7.82h2.32a.77.77 0 0 0 .69-.43l3-6.31c.11-.24.42-.61.72-.61h1c.26 0 .57.36.7.6l3 6.3a.75.75 0 0 0 .68.43h2.27l-3.8-7.9a1.92 1.92 0 0 0-.37-.47"/>
    <path class="regular" d="M46.45 3.54a.51.51 0 0 1 .47-.21c.2 0 .41.1.45.23.84 2.31 1.76 4.71 2.6 7h-6.11zm-4.64 12.65c.53-1.42 1.23-3.33 1.48-4h7.25l1.46 4.02a.6.6 0 0 0 .57.4h1.26l-4.95-13.61a2.12 2.12 0 0 0-2-1.37 2.17 2.17 0 0 0-2 1.37l-4.88 13.61h1.22a.64.64 0 0 0 .6-.42"/>
    <path class="accent" d="M19.57 1.26h-1.93a.41.41 0 0 0-.41.41v1.92a.42.42 0 0 0 .41.42h1.93a.41.41 0 0 0 .43-.42v-1.92a.41.41 0 0 0-.41-.41"/>
    <path class="regular" d="M88.29 1.68a.49.49 0 0 0-.49.48v1.14h5v13.31h1.16a.4.4 0 0 0 .4-.4v-12.91h4.43a.44.44 0 0 0 .44-.44v-1.17zM53.18 1.68a.49.49 0 0 0-.49.48v1.14h5v13.31h1.11a.39.39 0 0 0 .39-.4v-12.91h4.43a.44.44 0 0 0 .44-.44v-1.17zM86.17 15h-7.17a1 1 0 0 1-1-1v-4.31h6.29a.43.43 0 0 0 .43-.43v-1.19h-6c-.53 0-.66.28-.68.46v-4.27a1 1 0 0 1 1-1h6.74a.41.41 0 0 0 .41-.41v-1.16h-7.54a2.34 2.34 0 0 0-2.19 2.2v10.75a2 2 0 0 0 1.84 2h7.45a.42.42 0 0 0 .42-.41zM74.54 15h-6.6v-13.31h-1.17a.47.47 0 0 0-.46.46v13.15a1.39 1.39 0 0 0 .22.79 1.27 1.27 0 0 0 1.06.52h7.41v-1.2a.45.45 0 0 0-.46-.46"/>
    <path class="accent" d="M9.57 14.4h-6.18a1 1 0 0 1-1-1v-3.29h6.2a.45.45 0 0 0 .41-.45v-2h-5.83c-.67 0-.76.39-.77.6v-3.32a1 1 0 0 1 1-1h6.22a.47.47 0 0 0 .47-.47v-2h-7.36a2.74 2.74 0 0 0-2.73 2.42v10.29a2.58 2.58 0 0 0 2.67 2.67h7.41v-1.93a.51.51 0 0 0-.51-.52"/>
    <path class="accent" d="M28.8 12a3.14 3.14 0 0 0 3.38 3.17h1a3.15 3.15 0 0 0 3.41-3.17v-5.55c0-2.15-1.29-3.28-3.4-3.28h-1c-2.11 0-3.38 1.13-3.38 3.28zm4.39-10.79c3.52 0 5.68 1.56 5.68 5.5v5c0 3.16-2 5.39-5.68 5.39h-1c-3.61 0-5.68-2.23-5.68-5.39v-5c0-3.94 2.16-5.5 5.68-5.5z"/>
</svg>
