<svg xmlns="http://www.w3.org/2000/svg" viewBox="0 0 285.7 101.4" fill="#e8e8e8"><path d="M18 .2h12.7v100.7c-1.9.4-4 .1-6.1.2h-6.6v-100.9zM159.7 78.6h-9.7v-78.4c1.4 0 3-.1 4.6-.1h5.1v78.5zM180.7 78.5h-9.6v-78.4h9.6v78.4zM126 .1h9.7v78.4c-1.4 0-3 .1-4.6.1h-5.1v-78.5zM51.7 101h-9.7v-100.7c1.4-.1 3-.1 4.6-.2h5.1v100.9zM261 .2h9.7v100.7c-1.4.1-3 .1-4.6.2h-5.1v-100.9zM93.7 78.6h-6.7v-78.4h6.7v78.4zM60 .1h6.7v78.3h-6.7v-78.3zM5.9 100.9v-100.6h3.5c.7 4.3 1 82.9.3 100.6h-3.8zM12 .2h3.7v100.7c-1 .1-2.2.1-3.7.2v-100.9zM35.9 100.9v-100.6h3.6c.5.5.8 84.3.2 100.6h-3.8zM69 .1h3.7v78.4c-1 0-2.3.1-3.7.2v-78.6zM78 .1h3.7v78.3c-1 0-2.3.1-3.7.2v-78.5zM102 .1h3.7v78.3c-1 0-2.3.1-3.7.2v-78.5zM114.7 78.6h-3.7v-78.4c1.1 0 2.3-.1 3.7-.2v78.6zM123.7 78.5h-3.6v-78.4h3.6v78.4zM138 .1h3.7v78.3c-1 .1-2.2.1-3.7.2v-78.5zM143.8.1h3.8v78.5h-2c-1.1 0-2 0-1.8-1.2.1-.5 0-1 0-1.6v-75.7zM165 .1h3.7v78.4c-1.1 0-2.3.1-3.7.2v-78.6zM186 .1h3.7v78.3c-1 .1-2.3.1-3.7.2v-78.5zM192 .1h3.7v78.4c-1 0-2.3.1-3.7.2v-78.6zM204 .1h3.7v78.4c-1 0-2.3.1-3.7.2v-78.6zM216.7 78.6h-3.7v-78.3c1 0 2.3-.1 3.7-.2v78.5zM225.7 78.6h-3.7v-78.4c1 0 2.3-.1 3.7-.2v78.6zM237.7 78.6h-3.7v-78.4c1 0 2.3-.1 3.7-.2v78.6zM249.7 101h-3.7v-100.7c1.1-.1 2.3-.1 3.7-.2v100.9zM255 .2h3.7v100.7c-1 .1-2.3.1-3.7.2v-100.9zM0 .2h3.7v100.7c-1 .1-2.2.1-3.7.2v-100.9zM276 .2h3.7v100.7c-1 .1-2.3.1-3.7.2v-100.9zM285.7 101h-3.7v-100.7c1-.1 2.3-.1 3.7-.2v100.9zM60.8 101.1v-14h13v2.4h-9.7v3.4h8.7v2.4h-8.7v3.5h9.8v2.4h-13.1zM83 87.1l4.1 5.2 4.1-5.2h3.9l-5.7 6.9 6.2 7.2h-3.9l-4.6-5.4-4.6 5.4h-3.9l6.2-7.2-5.8-6.9zM99.6 93.5c0-1 .2-1.9.5-2.7.3-.8.9-1.5 1.6-2.1.7-.6 1.6-1.1 2.6-1.4 1.1-.3 2.3-.5 3.8-.5s2.7.2 3.8.5c1.1.3 1.9.8 2.6 1.4.7.6 1.2 1.3 1.6 2.1.3.8.5 1.7.5 2.7v1.2c0 1-.2 1.8-.5 2.7-.3.8-.9 1.5-1.6 2.1-.7.6-1.6 1.1-2.6 1.4-1 .3-2.3.5-3.8.5-1.4 0-2.7-.2-3.8-.5-1.1-.3-1.9-.8-2.6-1.4-.7-.6-1.2-1.3-1.6-2.1-.3-.8-.5-1.7-.5-2.7zm8.5 5.5c.8 0 1.4-.1 2.1-.3.7-.2 1.2-.5 1.6-.8.4-.4.8-.8 1-1.3.2-.5.4-1.1.4-1.8v-1.4c0-.7-.1-1.3-.4-1.8-.2-.5-.6-1-1-1.3-.4-.4-1-.6-1.6-.8-.6-.2-1.3-.3-2.1-.3s-1.4.1-2.1.3c-.7.2-1.2.5-1.6.8-.4.4-.8.8-1 1.3-.2.5-.4 1.1-.4 1.8v1.4c0 .7.1 1.3.4 1.8.2.5.6 1 1 1.3.4.4 1 .6 1.6.8.6.2 1.3.3 2.1.3zM120.7 101.1l6.6-14h4.3l6.6 14h-3.5l-1.4-3.3h-7.8l-1.4 3.3zm5.9-5.6h5.8l-2.7-6.1h-.4zM149.4 89.5v11.7h-3.3v-11.7h-5.8v-2.4h15v2.4zM160.9 101.1v-14h3.4v11.7h8.7v2.4h-12.1zM177.5 101.1l6.6-14h4.3l6.6 14h-3.5l-1.4-3.3h-7.8l-1.4 3.3zm5.9-5.6h5.8l-2.7-6.1h-.4zM212.7 101.1l-8.8-10.1h-.1l.1.9v9.2h-3.2v-14h3.3l8.9 10.3h.1l-.1-.8v-9.5h3.2v14zM231 89.5v11.7h-3.3v-11.7h-5.8v-2.4h15v2.4z"/></svg>