<svg xmlns="http://www.w3.org/2000/svg" viewBox="0 0 11.51 4.55">
  <style>
    .a{stroke:#fff;stroke-width:.003;fill:none}
  </style>
  <path class="a" d="M11.507 3.021l.002-1.176-.049-.116-.357-.349-.265-.265-.106-.053h-1.908l-.106.053-.265.265-.345.345-.027.106v1.935l.053.106.609.609.126.057h1.9l.122-.057.583-.583.036-.106-.002-.771zm-2.683.56l-.027-.027v-1.458l.027-.053.08-.08.133-.106.053-.027h1.378l.053.027.212.212.027.053v1.458l-.027.053-.212.212-.027.027h-1.378l-.027-.027-.265-.265z"/>
  <path class="a" d="M4.196 4.537l.096-.091c.159-.265.341-.549.526-.814l.451-.742.106-.053h.477l.106.053c.159.265.318.53.477.822.159.265.318.503.451.768l.084.057h.871l-.027-.031-.212-.345c-.318-.53-.636-1.06-.954-1.617v-.133l1.113-1.855.053-.106.027-.027h-.848l-.106.053-.503.848-.424.716-.106.053h-.451l-.106-.08c-.159-.265-.318-.557-.503-.822l-.451-.742-.08-.053h-.849l.027.053.106.185 1.06 1.749v.133c-.345.583-.689 1.166-1.034 1.723l-.133.212-.062.086zm1.734-4.535h-.636c-.08 0-.133.053-.133.133v.477c0 .08.053.133.133.133h.636c.08 0 .133-.053.133-.133v-.477c0-.08-.053-.133-.133-.133z"/>
  <path class="a" d="M.744 3.244h2.254l.08-.027.027-.08v-.531l-.027-.08-.053-.027h-2.254v-.663h2.28l.053-.027.027-.08v-.504c0-.08-.027-.106-.106-.106h-2.916c-.08 0-.106.027-.106.106v3.313h3.022l.053-.027.027-.08v-.504c0-.08-.027-.106-.106-.106h-2.227v-.451l-.027-.133z"/>
</svg>
