<svg xmlns="http://www.w3.org/2000/svg" viewBox="0 0 33.23 4.54">
    <path fill="#fff" d="M11.504 3.018l.002-1.176-.049-.116-.357-.349-.265-.265-.106-.053h-1.908l-.106.053-.265.265-.345.345-.027.106v1.935l.053.106.609.609.126.057h1.9l.122-.057.583-.583.036-.106-.002-.771zm-2.683.56l-.027-.027v-1.458l.027-.053.08-.08.133-.106.053-.027h1.378l.053.027.212.212.027.053v1.458l-.027.053-.212.212-.027.027h-1.378l-.027-.027-.265-.265z"/>
    <path fill="#ed4555" d="M4.269 4.535l.096-.091c.159-.265.341-.549.526-.814l.451-.742.106-.053h.477l.106.053c.159.265.318.53.477.822.159.265.318.503.451.768l.084.057h.871l-.027-.031-.212-.345c-.318-.53-.636-1.06-.954-1.617v-.133l1.113-1.855.053-.106.027-.027h-.848l-.106.053-.503.848-.424.716-.106.053h-.451l-.106-.08c-.159-.265-.318-.557-.503-.822l-.451-.742-.08-.053h-.849l.027.053.106.185 1.06 1.749v.133c-.345.583-.689 1.166-1.034 1.723l-.133.212-.062.086zm1.734-4.535h-.636c-.08 0-.133.053-.133.133v.477c0 .08.053.133.133.133h.636c.08 0 .133-.053.133-.133v-.477c0-.08-.053-.133-.133-.133z"/>
    <path fill="#fff" d="M.741 3.241h2.254l.08-.027.027-.08v-.531l-.027-.08-.053-.027h-2.254v-.663h2.28l.053-.027.027-.08v-.504c0-.08-.027-.106-.106-.106h-2.916c-.08 0-.106.027-.106.106v3.313h3.022l.053-.027.027-.08v-.504c0-.08-.027-.106-.106-.106h-2.227v-.451l-.027-.133z"/>
    <path fill="#fff" d="M21.941 4.058v-.133c0-.08-.027-.106-.106-.106h-2.253v-2.677l-.027-.053-.08-.027h-.531c-.106 0-.106.027-.106.106v3.26l.027.08.053.027h2.915l.08-.027.027-.08v-.371z"/>
    <path fill="#fff" d="M18.364 1.168l-.027-.08-.08-.027h-2.942l-.08.027-.027.08v.53c0 .08.027.106.106.106h1.088v2.624l.027.08.08.027h.557c.08 0 .106-.027.106-.106v-2.624h1.089c.08 0 .08-.027.08-.106v-.159c.027-.133.027-.265.027-.371z"/>
    <path fill="#fff" d="M33.234 1.187c.002-.074-.022-.124-.111-.127h-2.942l-.08.027-.027.08v.53c0 .08.027.106.106.106h1.088v2.624l.027.08.08.027h.557c.08 0 .106-.027.106-.106v-2.624h1.089c.08 0 .106-.023.107-.102l.004-.168z"/>
    <path fill="#fff" d="M12.982 1.138l-.08.053-.264.742-.027.105-.158.477-.213.609-.398 1.113-.053.158-.047.139h.705l.096-.061c.053-.185.15-.422.229-.607l.053-.053h1.643l.053.053.107.293.105.291.105.08h.637v-.027l-.184-.557c-.106-.292-.213-.582-.293-.873-.212-.636-.423-1.246-.662-1.855l-.107-.08zm.506.689h.266l.025.025.293.85.158.477h-1.248v-.025l.055-.135.291-.82.08-.213.027-.053z"/>
    <path fill="#fff" d="M23.396 1.138l-.08.053-.264.742-.027.105-.16.477-.211.609-.398 1.113-.053.158-.051.139h.756l.064-.084c.053-.185.134-.399.213-.584l.053-.053h1.643l.053.053.107.293.105.291.105.08h.637v-.027l-.184-.557c-.106-.292-.213-.582-.293-.873-.212-.636-.423-1.246-.662-1.855l-.107-.08zm.506.689h.266l.025.025.293.85.158.477h-1.248v-.025l.053-.135.293-.82.08-.213.027-.053z"/>
    <path fill="#fff" d="M29.679 1.22c0-.106-.027-.106-.106-.106h-.61v2.359l-1.881-2.305-.106-.053h-.557c-.106 0-.106.027-.106.106v3.207c0 .106.027.106.106.106h.503c.106 0 .106-.027.106-.106v-2.173l1.802 2.2c.053.053.106.08.159.08h.583c.106 0 .106-.027.106-.106v-1.961z"/>
</svg>